<svg xmlns="http://www.w3.org/2000/svg" width="360" height="128" viewBox="0 0 360 128" fill="none"><path d="M137.497 26.3562C137.497 28.11 138.918 29.5315 140.672 29.5315C142.425 29.5315 143.846 28.11 143.846 26.3562" stroke="#D4E1F3" stroke-width="0.795016" stroke-linecap="round"></path><path d="M140.688 19.5549V13.6186C140.688 8.21484 145.068 3.8335 150.473 3.8335C155.877 3.8335 160.259 8.21484 160.259 13.6186V96.3153" stroke="#D4E1F3" stroke-width="0.795016" stroke-linecap="round"></path><path d="M153.322 126.053L154.576 102.078C154.736 98.85 157.4 96.3162 160.631 96.3154C163.864 96.3154 166.53 98.8492 166.695 102.078L167.949 126.053" stroke="#D4E1F3" stroke-width="0.795016" stroke-linecap="round"></path><path fill-rule="evenodd" clip-rule="evenodd" d="M148.163 26.3563H133.211C133.211 24.5532 133.928 22.8232 135.204 21.5472C136.479 20.272 138.209 19.5549 140.013 19.5549H141.354C145.11 19.5549 148.155 22.6006 148.155 26.3563H148.163Z" stroke="#D4E1F3" stroke-width="0.795016" stroke-linecap="round"></path><path d="M241.178 35.9832H260.391" stroke="#D4E1F3" stroke-width="1.59003" stroke-linecap="round"></path><path d="M248.978 36.7057C248.526 37.4594 248.884 38.3641 249.129 39.214C250.717 44.6972 259.446 61.1023 259.446 61.1023C259.979 60.8487 260.492 60.5538 260.978 60.2207C262.138 59.4272 263.423 58.1973 262.995 57.3403L252.011 39.0549C251.771 38.3116 251.771 37.5126 252.011 36.7693L252.487 35.2452C252.562 34.9606 252.511 34.6561 252.344 34.4128C252.178 34.1688 251.914 34.0098 251.622 33.9756H250.741C250.296 34.0098 249.9 34.2705 249.693 34.6657L248.978 36.7057Z" fill="#ECA880"></path><path d="M222.717 59.3875L223.138 59.0147C223.574 58.6227 224.139 58.4049 224.726 58.4033H227.519C227.908 58.4049 228.267 58.6132 228.46 58.9503C228.653 59.2874 228.651 59.7024 228.455 60.0387L227.408 61.8481C227.215 62.1828 226.858 62.3879 226.472 62.3879H224.257L223.074 62.054L222.702 59.3875" fill="#873F32"></path><path d="M202.487 63.2372L222.717 59.3877L223.09 62.0542L204.694 68.1973L202.487 63.2372Z" fill="#873F32"></path><path d="M203.781 64.8478L203.488 60.6811L205.869 58.6021C206.912 57.691 207.333 56.2576 206.948 54.9276C206.545 53.4846 205.639 52.234 204.392 51.4041L199.536 57.951L199.273 64.8001L203.781 64.8478Z" fill="#A25A4B"></path><path d="M186.377 81.3157C183.305 80.5223 181.488 81.3157 180.535 82.5854C179.02 84.6015 182.123 87.3475 182.123 87.3475" fill="#18733B"></path><path d="M261.811 1L184.742 125.957" stroke="#D4E1F3" stroke-width="1.59003" stroke-linecap="round"></path><path d="M229.963 53.0308H250.994" stroke="#D4E1F3" stroke-width="1.59003" stroke-linecap="round"></path><path d="M220.265 68.2209H240.9" stroke="#D4E1F3" stroke-width="1.59003" stroke-linecap="round"></path><path d="M211.536 83.3H232.17" stroke="#D4E1F3" stroke-width="1.59003" stroke-linecap="round"></path><path d="M201.432 99.1885H222.456" stroke="#D4E1F3" stroke-width="1.59003" stroke-linecap="round"></path><path d="M192.448 114.363H212.559" stroke="#D4E1F3" stroke-width="1.59003" stroke-linecap="round"></path><path opacity="0.5" d="M165.227 126.291H178.441" stroke="#D4E1F3" stroke-width="0.795016" stroke-linecap="round"></path><path opacity="0.5" d="M184.758 126.291H197.988" stroke="#D4E1F3" stroke-width="0.795016" stroke-linecap="round"></path><path opacity="0.5" d="M205.583 126.291H232.376" stroke="#D4E1F3" stroke-width="0.795016" stroke-linecap="round"></path><path d="M207.877 109.307L207.845 101.53H202.71L204.035 111.926L208.258 112.347L211.353 111.561L207.877 109.307Z" fill="#A25A4B"></path><path d="M186.583 90.4346L175.933 112.172L178.313 111.649L191.409 93.0931C189.579 92.6861 187.905 91.763 186.583 90.4346Z" fill="#208E45"></path><path d="M173.044 125.632L170.98 124.363L169.734 124.72C169.268 124.856 168.784 124.925 168.298 124.926H163.981C163.794 125.302 163.815 125.748 164.036 126.105C164.257 126.462 164.648 126.68 165.068 126.68H172.528C173.068 126.68 173.504 125.918 173.044 125.632Z" fill="#C2C1C0"></path><path d="M213.122 112.625L211.059 111.355L209.813 111.712C209.346 111.848 208.863 111.917 208.376 111.918H204.059C203.872 112.294 203.894 112.741 204.115 113.098C204.336 113.455 204.726 113.672 205.147 113.672H212.606C212.854 113.672 213.081 113.531 213.191 113.309C213.3 113.086 213.273 112.822 213.122 112.625Z" fill="#C2C1C0"></path><path d="M174.512 115.442H168.75L164.266 124.37L163.981 124.934H168.298C168.784 124.933 169.268 124.863 169.734 124.727L170.98 124.37L168.957 123.117L174.512 115.442Z" fill="#A25A4B"></path><path d="M208.011 94.5218C208.087 92.3872 207.047 90.367 205.265 89.1888C202.456 87.3237 198.027 84.4267 194.099 81.951C190.925 79.9587 188.432 80.3077 186.742 81.1568C185.359 81.8723 184.244 83.0163 183.568 84.4187L168.012 115.442H175.607L191.369 93.1011C194.542 94.4359 197.907 95.2579 201.337 95.5378L201.979 101.538H208.329L208.011 94.5218Z" fill="#55A55C"></path><mask id="mask0_48_631" style="mask-type:alpha" maskUnits="userSpaceOnUse" x="168" y="80" width="41" height="36"><path d="M208.011 94.5218C208.087 92.3872 207.047 90.367 205.265 89.1888C202.456 87.3237 198.027 84.4267 194.099 81.951C190.925 79.9587 188.432 80.3077 186.742 81.1568C185.359 81.8723 184.244 83.0163 183.568 84.4187L168.012 115.442H175.607L191.369 93.1011C194.542 94.4359 197.907 95.2579 201.337 95.5378L201.979 101.538H208.329L208.011 94.5218Z" fill="#55A55C"></path></mask><g mask="url(#mask0_48_631)"><path d="M192.814 94.0771C192.814 94.0771 185.306 91.863 185.139 87.1963" stroke="#18733B" stroke-width="0.795016"></path></g><path d="M168.012 115.434L169.187 113.094H178.663L177.012 115.434H168.012Z" fill="#55A55C"></path><path d="M177.258 113.093L178.274 111.649L171.853 113.093H177.258Z" fill="#208E45"></path><path d="M201.98 101.53L201.758 99.1885H209.281L208.932 101.53H201.98Z" fill="#55A55C"></path><path d="M208.218 99.1885L208.178 97.7439L203.75 99.1885H208.218Z" fill="#208E45"></path><path d="M168.75 115.434H174.512L173.337 117.053L168.75 115.434Z" fill="#873F32"></path><path d="M202.71 101.53H207.845L207.853 103.506L202.71 101.53Z" fill="#873F32"></path><path d="M186.932 81.7601C186.932 81.7601 187.924 82.0622 191.385 83.0297C193.24 83.5878 195.17 83.8557 197.107 83.8239L195.925 80.7361L191.385 78.1888L191.543 71.8398L189.893 75.0144C189.69 75.4286 189.44 75.8173 189.147 76.1727C188.024 77.5067 186.682 78.6396 185.178 79.5221L181.615 81.6098C183.047 81.0104 184.65 80.9627 186.115 81.4746" fill="#A9D8B5"></path><path d="M197.138 83.8479C197.138 83.8479 198.988 79.6971 201.106 77.5617C203.226 75.4271 205.313 75.8953 207.305 73.2607C209.297 70.626 203.797 64.0862 203.797 64.0862C202.296 64.4479 200.725 64.3843 199.257 63.9033L192.615 68.9191C191.162 73.329 189.077 77.5052 186.425 81.3158L197.138 83.8479Z" fill="#A9D8B5"></path><path d="M228.899 65.9672H227.979C227.103 65.9672 226.392 66.6779 226.392 67.5541V69.2212C226.394 69.7268 226.076 70.1792 225.599 70.3477L214.607 74.0144L206.146 66.6811C204.789 65.4671 202.559 65.0386 201.242 66.3083C200.529 66.9975 200.151 67.9611 200.204 68.9509C200.257 69.9407 200.737 70.8581 201.519 71.4671L212.455 79.9587C213.153 80.5065 214.119 80.5637 214.876 80.1018L228.899 71.134C229.927 70.4749 230.549 69.3389 230.551 68.1177V67.5541C230.551 67.1224 230.375 66.7082 230.063 66.4092C229.752 66.1095 229.332 65.9497 228.899 65.9672Z" fill="#A25A4B"></path><path d="M205.44 49.7607C205.44 48.0474 204.05 46.6577 202.337 46.6577C200.623 46.6577 199.234 48.0474 199.234 49.7607C199.235 49.9586 199.256 50.155 199.297 50.3482C198.218 50.9834 195.702 52.8875 196.877 56.3005C193.565 56.9794 190.665 58.9614 188.829 61.8004C185.551 66.673 189.345 70.1417 189.345 70.1417C189.345 70.1417 194.52 73.8322 197.948 68.7766C200.102 65.5131 201.765 61.9514 202.885 58.2053C202.885 58.2053 204.329 56.2051 203.678 54.9593C203.154 53.975 203.766 52.8485 204.25 52.1974C204.959 51.5797 205.388 50.7004 205.44 49.7607Z" fill="#842D1B"></path><path d="M204.243 56.9512C204.367 56.4583 203.976 55.934 203.368 55.7803C202.761 55.6265 202.167 55.9015 202.042 56.3944C201.918 56.8873 202.309 57.4115 202.917 57.5653C203.524 57.719 204.118 57.4441 204.243 56.9512Z" fill="#A25A4B"></path><path d="M226.297 59.2683L224.328 60.3956L224.9 58.4033H226.709L226.297 59.2683Z" fill="#873F32"></path><path opacity="0.5" d="M188.679 80.0619C192.326 80.4817 195.932 78.9799 198.202 76.094" stroke="#55A55C" stroke-width="0.795016" stroke-linecap="round"></path><path d="M283.034 1L205.813 125.957" stroke="#D4E1F3" stroke-width="1.59003" stroke-linecap="round"></path><path d="M250.931 18.9363H271.954" stroke="#D4E1F3" stroke-width="1.59003" stroke-linecap="round"></path><path d="M289.78 126.26C289.78 122.796 292.587 119.989 296.049 119.989C299.512 119.989 302.319 122.796 302.319 126.26" stroke="#D4E1F3" stroke-width="0.795016" stroke-linecap="round"></path><path d="M268.018 59.7844L269.471 56.5074C269.965 55.3808 270.765 54.4157 271.78 53.7216L272.796 53.0308L274.716 55.3323C275.51 56.245 277.097 57.8645 276.796 58.999L275.772 61.1026L272.756 63.9034L268.018 59.7844Z" fill="#ECA880"></path><path d="M262.987 57.3403L266.907 65.9511L262.987 73.2605C262.987 73.2605 260.462 71.9829 255.883 61.4355L262.987 57.3403Z" fill="#C24739"></path><path opacity="0.5" d="M248.931 126.244H267.502" stroke="#D4E1F3" stroke-width="0.795016" stroke-linecap="round"></path><path opacity="0.5" d="M285.883 126.244H304.454" stroke="#D4E1F3" stroke-width="0.795016" stroke-linecap="round"></path><path d="M269.105 94.9345C267.431 91.5223 265.78 87.792 264.208 83.689C256.085 93.7245 251.875 106.365 252.36 119.268H258.431C259.733 112.514 262.653 102.458 269.105 94.9345Z" fill="#DDDFE0"></path><path d="M258.431 119.267H253.447C253.487 120.22 253.542 121.18 253.637 122.156H257.931C258.066 121.283 258.224 120.323 258.431 119.267Z" fill="#ECA880"></path><path d="M292.756 119.267H287.105C288.414 120.728 289.383 121.648 289.883 122.156H294.644C293.999 121.188 293.37 120.225 292.756 119.267Z" fill="#ECA880"></path><path d="M277.795 85.6095C277.795 85.6095 280.057 85.5061 279.518 82.435C279.05 79.7764 277.51 79.7685 276.803 75.8316C276.097 71.8954 275.065 81.5302 275.065 81.5302L277.795 85.6095Z" fill="#DA513E"></path><path d="M267.671 60.7072C269.63 59.5763 270.876 58.0688 270.455 57.34C270.035 56.6111 268.106 56.9371 266.147 58.0679C264.188 59.1987 262.942 60.7063 263.362 61.4351C263.783 62.1639 265.712 61.838 267.671 60.7072Z" fill="#A42422"></path><path d="M269.105 94.9343C273.311 103.734 278.693 111.92 285.105 119.267H292.755C281.446 101.57 277.795 85.6096 277.795 85.6096C270.264 82.0622 264.208 83.6968 264.208 83.6968L270.796 93.109C270.208 93.7124 269.645 94.3206 269.105 94.9343Z" fill="#EBEBEB"></path><path d="M270.796 93.101L264.208 83.6968C265.796 87.784 267.431 91.5301 269.105 94.9423C269.645 94.3238 270.208 93.71 270.796 93.101Z" fill="#EBEBEB"></path><path opacity="0.25" d="M259.256 115.513L258.907 116.974H254.272L259.256 115.513Z" fill="#9A9FA5"></path><path d="M258.733 119.267L259.256 116.974H251.915L252.36 119.267H258.733Z" fill="#DDDFE0"></path><path d="M290.447 115.513L291.319 116.974H286.533L290.447 115.513Z" fill="#DDDFE0"></path><path d="M293.224 119.267L291.97 116.974H282.589L284.732 119.267H293.224Z" fill="#EBEBEB"></path><path d="M287.105 119.267L293.581 120.545L292.748 119.267H287.105Z" fill="#E8976F"></path><path d="M253.447 119.267L258.216 120.402L258.423 119.267H253.447Z" fill="#E8976F"></path><path d="M270.454 57.3405L263.82 39.777C263.479 38.8754 263.557 37.8689 264.034 37.031C264.161 36.8171 264.93 35.658 265.002 35.5387C265.238 35.1412 265.304 34.665 265.186 34.2174C265.069 33.7706 264.776 33.389 264.375 33.1584L261.931 37.1264L261.724 37.4674C261.265 38.2195 261.144 39.1298 261.391 39.9757C262.979 45.4597 266.899 61.0778 266.899 61.0778C267.432 60.8266 267.945 60.5317 268.431 60.197C269.597 59.4035 270.883 58.1975 270.454 57.3405Z" fill="#ECA880"></path><mask id="mask1_48_631" style="mask-type:alpha" maskUnits="userSpaceOnUse" x="262" y="57" width="16" height="29"><path d="M277.795 85.6097L264.208 83.6969C264.208 83.6969 259.447 72.3242 264.653 64.7922L263.375 61.4754L270.414 57.261C270.414 57.261 276.764 65.3081 277.795 85.6176" fill="#DA513E"></path></mask><g mask="url(#mask1_48_631)"><path d="M277.795 85.6097L264.208 83.6969C264.208 83.6969 259.447 72.3242 264.653 64.7922L263.375 61.4754L270.414 57.261C270.414 57.261 276.764 65.3081 277.795 85.6176" fill="#DA513E"></path><path d="M269.105 76.8875C270.646 79.3623 273.068 81.1607 275.883 81.9191" stroke="#B8332A" stroke-width="0.795016"></path><path d="M266.438 70.4751L263.812 63.7373" stroke="#B8332A" stroke-width="0.795016"></path></g><path d="M279.471 55.4038L279.074 54.1739C278.778 53.138 277.849 52.4097 276.772 52.3724H276.566C275.876 52.3676 275.22 52.0806 274.748 51.5781L274.058 50.8563C273.723 50.512 273.225 50.384 272.767 50.5248C272.308 50.6655 271.967 51.0511 271.883 51.5233L270.899 54.4354C270.899 54.4354 271.256 54.1103 271.375 54.0149C271.717 53.7533 272.78 53.0386 272.78 53.0386L274.081 55.1025C274.475 55.6478 274.63 56.3292 274.51 56.9914L274.296 58.2213L274.375 58.1736C274.801 57.8906 275.356 57.8914 275.782 58.176C276.207 58.4598 276.421 58.9718 276.323 59.4743C276.226 59.9759 275.837 60.371 275.336 60.4752C275.068 60.5881 274.775 60.6294 274.487 60.5944L273.2 62.4913L273.756 63.9112L277.851 61.3799C279.554 59.9012 280.193 57.54 279.471 55.4038Z" fill="#674424"></path><path d="M260.204 60.7033C262.162 59.5724 263.409 58.0649 262.988 57.336C262.567 56.6072 260.638 56.9332 258.68 58.064C256.721 59.1948 255.474 60.7024 255.895 61.4312C256.316 62.16 258.245 61.8341 260.204 60.7033Z" fill="#C24739"></path><path d="M296.2 125.172C295.573 123.966 295.343 123.386 294.652 122.156H289.891C288.55 122.95 286.033 123.966 284.526 125.037C284.411 125.12 284.32 125.232 284.264 125.363H296.28C296.256 125.298 296.23 125.234 296.2 125.172Z" fill="#5B7FC0"></path><path d="M285.137 126.656H295.454C295.759 126.644 296.037 126.481 296.197 126.221C296.356 125.961 296.375 125.639 296.248 125.363H284.256C284.148 125.654 284.187 125.98 284.362 126.237C284.537 126.493 284.826 126.65 285.137 126.656Z" fill="#B1C9E9"></path><path d="M247.852 126.656H256.772C257.15 126.657 257.465 126.367 257.495 125.989C257.495 125.815 257.534 125.601 257.558 125.363H247.407C247.163 125.552 247.066 125.876 247.166 126.169C247.267 126.462 247.543 126.657 247.852 126.656Z" fill="#B1C9E9"></path><path d="M257.931 122.156H253.637L247.431 125.331H257.566C257.606 124.584 257.732 123.49 257.931 122.156Z" fill="#5B7FC0"></path><path d="M300.478 121.292C302.772 116.87 307.79 114.588 312.63 115.766C317.47 116.945 320.877 121.278 320.882 126.26" stroke="#D4E1F3" stroke-width="0.795016" stroke-linecap="round"></path><path d="M327.056 121.204C329.351 116.782 334.369 114.501 339.209 115.68C344.049 116.858 347.456 121.191 347.461 126.172" stroke="#D4E1F3" stroke-width="0.795016" stroke-linecap="round"></path><path d="M347.461 126.26C347.461 122.797 350.267 119.99 353.73 119.99C357.193 119.99 360 122.797 360 126.26" stroke="#D4E1F3" stroke-width="0.795016" stroke-linecap="round"></path><path d="M318.302 119.251C320.657 118.247 323.359 118.491 325.496 119.902C327.632 121.311 328.919 123.7 328.921 126.259" stroke="#D4E1F3" stroke-width="0.795016" stroke-linecap="round"></path><path d="M302.414 89.6252V118.474" stroke="#D4E1F3" stroke-width="0.795016" stroke-linecap="round"></path><path d="M310.684 118.64V125.457L307.43 122.204" stroke="#D4E1F3" stroke-width="0.795016" stroke-linecap="round" stroke-linejoin="round"></path><path d="M335.874 118.64V125.457L332.62 122.204" stroke="#D4E1F3" stroke-width="0.795016" stroke-linecap="round" stroke-linejoin="round"></path><path d="M302.414 102.919L307.581 97.752" stroke="#D4E1F3" stroke-width="0.795016" stroke-linecap="round"></path><path d="M302.318 95.7207L298.645 92.0461" stroke="#D4E1F3" stroke-width="0.795016" stroke-linecap="round"></path><path d="M310.684 123.125L313.065 120.744" stroke="#D4E1F3" stroke-width="0.795016" stroke-linecap="round"></path><path d="M302.41 78.5142H302.41C298.034 78.5142 294.486 82.0621 294.486 86.4386V101.335C294.486 105.712 298.034 109.26 302.41 109.26H302.41C306.787 109.26 310.335 105.712 310.335 101.335V86.4386C310.335 82.0621 306.787 78.5142 302.41 78.5142Z" stroke="#D4E1F3" stroke-width="0.795016" stroke-linecap="round"></path><path d="M74.7444 103.831H135.164C136.356 103.831 137.322 102.865 137.322 101.673C137.322 100.48 136.356 99.5144 135.164 99.5144H74.7444" fill="white"></path><path d="M74.7444 103.831H135.164C136.356 103.831 137.322 102.865 137.322 101.673C137.322 100.48 136.356 99.5144 135.164 99.5144H74.7444" stroke="#D4E1F3" stroke-width="0.795016" stroke-linecap="round"></path><path opacity="0.5" d="M138.703 126.053H149.56" stroke="#D4E1F3" stroke-width="0.795016" stroke-linecap="round"></path><path opacity="0.5" d="M46.5466 125.958H131.83" stroke="#D4E1F3" stroke-width="0.795016" stroke-linecap="round"></path><path d="M50.6578 103.823L111.077 103.823C112.269 103.823 113.236 102.857 113.236 101.665C113.236 100.473 112.269 99.5061 111.077 99.5061L50.6578 99.5061C49.4655 99.5061 48.4991 100.473 48.4991 101.665C48.4991 102.857 49.4655 103.823 50.6578 103.823Z" fill="white" stroke="#D4E1F3" stroke-width="0.795016" stroke-linecap="round"></path><path d="M138.703 126.053L134.1 103.831" stroke="#D4E1F3" stroke-width="0.795016" stroke-linecap="round"></path><path d="M72.5936 78.9587L72.9348 77.2605" stroke="#D4E1F3" stroke-width="0.795016" stroke-linecap="round"></path><path d="M70.7128 88.3874L71.4984 84.4592" stroke="#D4E1F3" stroke-width="0.795016" stroke-linecap="round"></path><path d="M68.4985 99.5137L69.7446 93.2522" stroke="#D4E1F3" stroke-width="0.795016" stroke-linecap="round"></path><path d="M133.172 78.9587L133.505 77.2605" stroke="#D4E1F3" stroke-width="0.795016" stroke-linecap="round"></path><path d="M131.291 88.3874L132.077 84.4592" stroke="#D4E1F3" stroke-width="0.795016" stroke-linecap="round"></path><path d="M129.076 99.5137L130.322 93.2522" stroke="#D4E1F3" stroke-width="0.795016" stroke-linecap="round"></path><path d="M114.172 103.831L118.489 126.053" stroke="#D4E1F3" stroke-width="0.795016" stroke-linecap="round"></path><path d="M46.5466 125.489L50.856 103.831" stroke="#D4E1F3" stroke-width="0.795016" stroke-linecap="round"></path><path d="M67.9585 83.8955L139.132 83.8955C140.324 83.8955 141.29 82.929 141.29 81.7368C141.29 80.5446 140.324 79.5781 139.132 79.5781L67.9585 79.5781C66.7663 79.5781 65.7999 80.5446 65.7999 81.7368C65.7999 82.929 66.7663 83.8955 67.9585 83.8955Z" fill="white" stroke="#D4E1F3" stroke-width="0.795016" stroke-linecap="round"></path><path d="M65.1099 92.7043L136.283 92.7043C137.475 92.7043 138.442 91.7379 138.442 90.5457C138.442 89.3535 137.475 88.387 136.283 88.387L65.1099 88.387C63.9177 88.387 62.9512 89.3535 62.9512 90.5457C62.9512 91.7379 63.9177 92.7043 65.1099 92.7043Z" fill="white" stroke="#D4E1F3" stroke-width="0.795016" stroke-linecap="round"></path><path d="M66.197 83.8638C60.3717 85.8974 54.0038 85.7305 48.2926 83.3955" stroke="#D4E1F3" stroke-width="0.795016" stroke-linecap="round"></path><path d="M33.0627 64.3166C31.0557 52.3158 37.9295 40.6005 49.3841 36.4982C60.8387 32.3967 73.5868 37.0849 79.6542 47.6316C85.721 58.1775 83.3662 71.5552 74.0619 79.3957" stroke="#D4E1F3" stroke-width="0.795016" stroke-linecap="round"></path><path d="M57.8558 103.831V125.275" stroke="#D4E1F3" stroke-width="0.795016" stroke-linecap="round"></path><path d="M57.8558 50.6345V99.5137" stroke="#D4E1F3" stroke-width="0.795016" stroke-linecap="round"></path><path d="M57.8558 68.6257L72.4587 54.0308" stroke="#D4E1F3" stroke-width="0.795016" stroke-linecap="round"></path><path d="M57.7051 78.6571L47.8799 68.8323" stroke="#D4E1F3" stroke-width="0.795016" stroke-linecap="round"></path><path d="M47.3242 73.9905H52.9828" stroke="#D4E1F3" stroke-width="0.795016" stroke-linecap="round"></path><path d="M65.4906 61.3242H73.3317" stroke="#D4E1F3" stroke-width="0.795016" stroke-linecap="round"></path><path d="M69.1017 57.3803V52.9282" stroke="#D4E1F3" stroke-width="0.795016" stroke-linecap="round"></path><path d="M57.856 61.0946L46.9276 50.1655" stroke="#D4E1F3" stroke-width="0.795016" stroke-linecap="round"></path><path d="M54.2449 49.2929C55.1215 49.2929 55.8321 48.5823 55.8321 47.7057C55.8321 46.8291 55.1215 46.1184 54.2449 46.1184C53.3682 46.1184 52.6576 46.8291 52.6576 47.7057C52.6576 48.5823 53.3682 49.2929 54.2449 49.2929Z" stroke="#D4E1F3" stroke-width="0.795016" stroke-linecap="round"></path><path d="M43.4117 66.427C44.2884 66.427 44.999 65.7163 44.999 64.8397C44.999 63.9631 44.2884 63.2524 43.4117 63.2524C42.5351 63.2524 41.8245 63.9631 41.8245 64.8397C41.8245 65.7163 42.5351 66.427 43.4117 66.427Z" stroke="#D4E1F3" stroke-width="0.795016" stroke-linecap="round"></path><path d="M70.3873 73.8796C71.2639 73.8796 71.9746 73.169 71.9746 72.2923C71.9746 71.4157 71.2639 70.7051 70.3873 70.7051C69.5107 70.7051 68.8 71.4157 68.8 72.2923C68.8 73.169 69.5107 73.8796 70.3873 73.8796Z" stroke="#D4E1F3" stroke-width="0.795016" stroke-linecap="round"></path><path d="M36.4277 92.363C37.3043 92.363 38.015 91.6524 38.015 90.7757C38.015 89.8991 37.3043 89.1885 36.4277 89.1885C35.5511 89.1885 34.8405 89.8991 34.8405 90.7757C34.8405 91.6524 35.5511 92.363 36.4277 92.363Z" stroke="#D4E1F3" stroke-width="0.795016" stroke-linecap="round"></path><path d="M25.8883 107.324C38.0339 107.324 47.8799 97.4778 47.8799 85.3322C47.8799 73.1865 38.0339 63.3406 25.8883 63.3406C13.7427 63.3406 3.89673 73.1865 3.89673 85.3322C3.89673 97.4778 13.7427 107.324 25.8883 107.324Z" stroke="#D4E1F3" stroke-width="0.795016" stroke-linecap="round"></path><path d="M25.5471 75.8237V117.609" stroke="#D4E1F3" stroke-width="0.795016" stroke-linecap="round"></path><path d="M25.5471 90.3797L33.7375 82.1895" stroke="#D4E1F3" stroke-width="0.795016" stroke-linecap="round"></path><path d="M25.3962 98.2518L19.5709 92.4268" stroke="#D4E1F3" stroke-width="0.795016" stroke-linecap="round"></path><path d="M25.3962 85.4823L19.5709 79.6572" stroke="#D4E1F3" stroke-width="0.795016" stroke-linecap="round"></path><path d="M10.6981 122.085C12.992 117.663 18.0105 115.382 22.8503 116.56C27.6902 117.739 31.0982 122.072 31.1024 127.053" stroke="#D4E1F3" stroke-width="0.795016" stroke-linecap="round"></path><path d="M0 127.053C5.15977e-08 123.591 2.80704 120.783 6.2697 120.783C9.73235 120.783 12.5394 123.591 12.5394 127.053" stroke="#D4E1F3" stroke-width="0.795016" stroke-linecap="round"></path><path d="M20.8965 119.434V126.252L17.6426 122.998" stroke="#D4E1F3" stroke-width="0.795016" stroke-linecap="round" stroke-linejoin="round"></path><path d="M20.8964 123.918L23.2773 121.537" stroke="#D4E1F3" stroke-width="0.795016" stroke-linecap="round"></path><path d="M74.0618 103.831L69.7445 125.489" stroke="#D4E1F3" stroke-width="0.795016" stroke-linecap="round"></path><path d="M98.9342 75.5781C100.948 75.5709 102.637 74.0556 102.863 72.0546H100.426V70.3723H98.109V72.3002H95.0458C95.3797 74.1892 97.0166 75.5693 98.9342 75.5781Z" fill="#D48E64"></path><mask id="mask2_48_631" style="mask-type:alpha" maskUnits="userSpaceOnUse" x="84" y="72" width="28" height="20"><path d="M102.863 72.0547C102.606 73.9778 100.994 75.4327 99.0542 75.4939C97.1152 75.5551 95.4154 74.2036 95.0378 72.3004H92.4111C90.3774 72.4975 88.4169 73.1606 86.6806 74.237C85.0262 75.3699 84.0364 77.2469 84.0364 79.2528C84.0364 81.2586 85.0262 83.1348 86.6806 84.2685C87.4422 84.7606 88.3104 85.0651 89.2127 85.1573C89.2127 85.1573 89.4981 89.3797 88.3 91.3553H102.427L111.442 72.0547H102.863Z" fill="#FDD663"></path></mask><g mask="url(#mask2_48_631)"><path d="M102.863 72.0547C102.606 73.9778 100.994 75.4327 99.0542 75.4939C97.1152 75.5551 95.4154 74.2036 95.0378 72.3004H92.4111C90.3774 72.4975 88.4169 73.1606 86.6806 74.237C85.0262 75.3699 84.0364 77.2469 84.0364 79.2528C84.0364 81.2586 85.0262 83.1348 86.6806 84.2685C87.4422 84.7606 88.3104 85.0651 89.2127 85.1573C89.2127 85.1573 89.4981 89.3797 88.3 91.3553H102.427L111.442 72.0547H102.863Z" fill="#FDD663"></path><path d="M88.649 77.3477C88.649 77.3477 90.4347 82.435 97.2837 82.1495" stroke="#F9BC15" stroke-width="0.795016"></path><path d="M97.2519 85.7847C93.7943 86.3205 90.2581 86.0296 86.9349 84.9348" stroke="#F9BC15" stroke-width="0.795016"></path></g><path d="M99.7753 72.0547H103.744C103.744 72.0547 105.387 60.1501 98.3466 60.1501C91.3076 60.1501 91.4976 68.9279 91.4976 74.1973C91.4976 74.602 91.5453 76.991 91.6168 77.332H98.101V70.3876V64.3963C98.1049 64.2413 98.2322 64.1181 98.3864 64.1181H101.672L99.7753 70.3717V72.0547Z" fill="#674424"></path><path d="M98.1011 70.3715H99.8469C100.624 70.3874 101.343 69.9676 101.712 69.2847C102.073 68.4897 102.218 67.6135 102.133 66.7446C102.053 64.8318 101.847 64.3166 101.736 64.1735C101.711 64.1369 101.669 64.1155 101.625 64.1179H98.2521C98.1702 64.1218 98.105 64.187 98.1011 64.2689V70.3715Z" fill="#D48E64"></path><path d="M99.7754 71.3478V70.3723H98.1011L99.7754 71.3478Z" fill="#CE835A"></path><path d="M88.3159 91.3552C88.3159 91.3552 82.0377 91.5222 79.911 96.9903C77.784 102.458 77.792 108.562 77.792 114.672H83.0537C83.0537 114.672 83.3868 106.339 84.8632 103.014C84.8632 103.014 85.9587 98.7918 95.0934 98.7918L101.736 91.3552H88.3159Z" fill="#EBEBEB"></path><mask id="mask3_48_631" style="mask-type:alpha" maskUnits="userSpaceOnUse" x="69" y="91" width="25" height="24"><path d="M80.2759 91.3551C80.2759 91.3551 73.9984 91.522 71.8714 96.9901C69.7445 102.458 69.7524 108.562 69.7524 114.648H75.0301C75.0301 114.648 75.3634 106.316 76.8396 102.99C76.8396 102.99 78.8396 97.1571 87.0693 98.7678L93.7125 91.332L80.2759 91.3551Z" fill="#EBEBEB"></path></mask><g mask="url(#mask3_48_631)"><path d="M80.276 91.3551C80.276 91.3551 73.9985 91.522 71.8715 96.9901C69.7446 102.458 69.7526 108.562 69.7526 114.648H75.0302C75.0302 114.648 75.3636 106.316 76.8397 102.99C76.8397 102.99 78.8397 97.1571 87.0694 98.7678L93.7126 91.332L80.276 91.3551Z" fill="#EBEBEB"></path><path fill-rule="evenodd" clip-rule="evenodd" d="M88.8551 90.7763C88.0489 90.7739 87.2468 90.8916 86.4748 91.1253C84.5381 91.7287 80.9987 93.2599 79.5542 96.9901C77.4111 102.45 77.4111 108.562 77.4111 114.648H82.6651C82.6651 114.648 83.0061 106.316 84.4825 102.99C84.4825 102.99 86.4748 97.1571 94.704 98.7678L100.998 90.7524L88.8551 90.7763Z" stroke="#DDDFE0" stroke-width="0.795016"></path></g><path d="M73.8 114.672H69.7524V116.283H73.8V114.672Z" fill="#D48E64"></path><path d="M81.8395 114.672H77.792V116.283H81.8395V114.672Z" fill="#D48E64"></path><path d="M81.8398 116.284V117.934C81.8398 118.531 81.5997 119.104 81.1728 119.522L77.7682 122.823C77.4695 123.107 77.0152 123.152 76.6673 122.93C76.3194 122.708 76.1678 122.277 76.3 121.887L77.7921 117.593V116.284H81.8398Z" fill="#ED675C"></path><path d="M73.8 116.284H69.7525V117.593L68.2604 121.887C68.137 122.212 68.2251 122.58 68.4827 122.815L73.8 117.768V116.284Z" fill="#ED675C"></path><path d="M69.7287 122.823L73.1334 119.522C73.5598 119.104 73.8001 118.531 73.8 117.934V117.767L68.4827 122.815C68.8264 123.157 69.3807 123.16 69.7287 122.823Z" fill="#F7AEA9"></path><path d="M77.7681 122.823L81.1727 119.522C81.5996 119.104 81.8397 118.531 81.8397 117.934V117.767L76.5221 122.815C76.8658 123.157 77.4202 123.16 77.7681 122.823Z" fill="#F7AEA9"></path><path d="M117.887 70.7133C117.887 70.7133 116.299 70.3874 115.934 68.1017C115.603 67.7304 115.234 67.3949 114.831 67.1024C114.949 66.9068 115.032 66.6913 115.077 66.4672C115.196 65.6737 114.886 65.0306 114.378 64.9431C113.871 64.8565 113.355 65.4034 113.228 66.1579C111.577 65.4177 109.747 65.1665 107.958 65.4352C107.958 65.4352 108.537 72.3479 112.72 70.1974L112.958 70.7292C113.033 70.9328 113.021 71.1585 112.925 71.3541C112.83 71.5489 112.658 71.696 112.45 71.7604C111.535 71.9877 110.647 72.3089 109.799 72.7207C111.276 74.205 113.368 74.9031 115.44 74.6026C117.512 74.3028 119.32 73.0395 120.315 71.1975C119.529 70.9343 118.713 70.7722 117.887 70.7133Z" fill="#E6C1A9"></path><mask id="mask4_48_631" style="mask-type:alpha" maskUnits="userSpaceOnUse" x="91" y="71" width="36" height="41"><path d="M120.331 71.1978C119.336 73.0398 117.528 74.3023 115.456 74.6028C113.384 74.9033 111.292 74.2053 109.815 72.721C107.728 73.7291 105.426 75.5862 105.053 78.9118V91.0302H100.617C100.617 91.0302 95.3153 92.2212 93.6092 97.3792C91.9031 102.538 91.6964 107.943 91.6964 111.808H109.482C109.482 111.808 109.093 103.991 112.371 98.8794H117.585C122.68 98.8794 125.077 92.0781 125.759 88.1411C126.783 82.2445 126.775 73.3801 120.331 71.1978Z" fill="#91B2DD"></path></mask><g mask="url(#mask4_48_631)"><path d="M120.331 71.1978C119.336 73.0398 117.528 74.3023 115.456 74.6028C113.384 74.9033 111.292 74.2053 109.815 72.721C107.728 73.7291 105.426 75.5862 105.053 78.9118V91.0302H100.617C100.617 91.0302 95.3153 92.2212 93.6092 97.3792C91.9031 102.538 91.6964 107.943 91.6964 111.808H109.482C109.482 111.808 109.093 103.991 112.371 98.8794H117.585C122.68 98.8794 125.077 92.0781 125.759 88.1411C126.783 82.2445 126.775 73.3801 120.331 71.1978Z" fill="#91B2DD"></path><path d="M115.26 94.9036C115.26 94.9036 111.728 99.808 110.791 103.316" stroke="#7198CF" stroke-width="0.795016"></path><path d="M124.76 74.3083C126.213 77.1736 126.354 80.5285 125.148 83.5067H118.68C119.14 81.9071 119.367 80.2495 119.355 78.5855" stroke="#7198CF" stroke-width="0.795016"></path></g><path d="M112.736 70.1975L114.728 69.0781L113.013 70.8478L112.736 70.1975Z" fill="#DEB093"></path><mask id="mask5_48_631" style="mask-type:alpha" maskUnits="userSpaceOnUse" x="112" y="83" width="12" height="8"><path d="M112.64 88.2682L114.133 90.4513C120.378 90.4513 123.259 85.2686 123.926 83.8638H119.473C117.887 87.237 112.64 88.2682 112.64 88.2682Z" fill="#E6C1A9"></path></mask><g mask="url(#mask5_48_631)"><path d="M112.64 88.2682L114.133 90.4513C120.378 90.4513 123.259 85.2686 123.926 83.8638H119.473C117.887 87.237 112.64 88.2682 112.64 88.2682Z" fill="#E6C1A9"></path><path d="M118.942 84.1492L123.925 85.3878L124.457 83.4432L119.624 82.8716L118.942 84.1492Z" fill="#DEB093"></path></g><mask id="mask6_48_631" style="mask-type:alpha" maskUnits="userSpaceOnUse" x="113" y="59" width="7" height="7"><path d="M116.291 65.1732C117.961 65.1732 119.315 63.8194 119.315 62.1495C119.315 60.4795 117.961 59.1257 116.291 59.1257C114.621 59.1257 113.267 60.4795 113.267 62.1495C113.267 63.8194 114.621 65.1732 116.291 65.1732Z" fill="#DDDFE0"></path></mask><g mask="url(#mask6_48_631)"><path d="M116.291 65.173C117.961 65.173 119.315 63.8192 119.315 62.1492C119.315 60.4793 117.961 59.1255 116.291 59.1255C114.621 59.1255 113.267 60.4793 113.267 62.1492C113.267 63.8192 114.621 65.173 116.291 65.173Z" fill="#DDDFE0"></path><path opacity="0.25" d="M111.538 61.3559C111.538 61.3559 115.878 61.5785 117.347 65.3715L114.442 66.5943L110.593 61.189L111.538 61.3559Z" fill="#9A9FA5"></path></g><path d="M115.918 64.5702C115.665 63.7331 115.216 62.9691 114.609 62.3402C113.828 61.5992 112.756 61.2462 111.688 61.3798C109.926 61.534 108.452 62.7798 108.005 64.4907C107.961 64.7133 107.939 64.9391 107.942 65.1657V65.4431C107.942 65.4431 111.18 65.3716 112.704 66.0545L113.172 66.2843C113.168 66.2453 113.168 66.2048 113.172 66.1658C113.299 65.3716 113.815 64.8636 114.323 64.951C114.831 65.0385 115.117 65.7453 115.021 66.4751C114.976 66.7589 114.871 67.0292 114.712 67.2685C115.394 67.7447 115.878 68.1414 115.878 68.1414C115.878 68.1414 116.751 67.0785 115.918 64.5702Z" fill="#DDDFE0"></path><path d="M115.355 91.3551H100.482C99.8453 91.3527 99.2602 91.0069 98.9502 90.4504L93.0694 79.9029C92.9597 79.7066 92.9621 79.4665 93.0766 79.2717C93.1911 79.0777 93.3994 78.9584 93.6251 78.9592H107.411C108.046 78.9584 108.632 79.3011 108.942 79.856L115.355 91.3551Z" fill="#EBEBEB"></path><path d="M119.569 90.1968H109.823V91.3555H119.569V90.1968Z" fill="#EBEBEB"></path><mask id="mask7_48_631" style="mask-type:alpha" maskUnits="userSpaceOnUse" x="94" y="110" width="14" height="18"><path d="M102.807 111.807H101.799C102.029 108.903 101.728 111.807 101.728 111.807H96.371C96.4744 115.545 97.403 119.394 98.0215 123.354C98.074 123.879 97.7687 124.374 97.2758 124.561L94.5298 125.759C94.2396 125.877 94.0742 126.185 94.1362 126.492C94.1983 126.798 94.4702 127.018 94.7834 127.013H104.617C105.237 127.009 105.74 126.507 105.743 125.887C105.886 121.168 106.417 116.47 107.331 111.839L102.807 111.807Z" fill="#E6C1A9"></path></mask><g mask="url(#mask7_48_631)"><path d="M102.807 111.807H101.799C102.029 108.903 101.728 111.807 101.728 111.807H96.371C96.4744 115.545 97.403 119.394 98.0215 123.354C98.074 123.879 97.7687 124.374 97.2758 124.561L94.5298 125.759C94.2396 125.877 94.0742 126.185 94.1362 126.492C94.1983 126.798 94.4702 127.018 94.7834 127.013H104.617C105.237 127.009 105.74 126.507 105.743 125.887C105.886 121.168 106.417 116.47 107.331 111.839L102.807 111.807Z" fill="#E6C1A9"></path><path d="M108.284 115.736L95.9585 113.744V111.482H108.386L108.284 115.736Z" fill="#DEB093"></path><path d="M98.5455 127.346C98.1869 127.28 97.9118 126.99 97.8649 126.629C97.818 126.267 98.0096 125.915 98.3396 125.76L101.078 124.593C101.556 124.389 101.855 123.906 101.823 123.386C101.617 119.54 101.617 115.686 101.823 111.839" stroke="#D3987A" stroke-width="0.795016"></path></g><path d="M126.251 75.4589C126.695 76.6736 126.743 77.8876 125.529 78.332C124.317 78.7701 122.979 78.1436 122.541 76.9312C122.103 75.7196 122.73 74.3816 123.941 73.9436C125.132 73.4991 125.822 74.2528 126.251 75.4589Z" fill="#D48E64"></path><path d="M129.235 125.244L123.037 94.149C122.784 93.1966 122.999 92.1798 123.616 91.411C124.233 90.6422 125.178 90.2121 126.164 90.2526C128.425 90.3441 130.341 91.942 130.838 94.149" stroke="#3F70B7" stroke-width="0.795016" stroke-linecap="round"></path><path d="M129.291 125.497L129.132 124.712" stroke="#3768B2" stroke-width="1.59003" stroke-linecap="round"></path></svg>